<?xml version="1.0" standalone="no"?>
<!DOCTYPE svg PUBLIC "-//W3C//DTD SVG 1.1//EN" "http://www.w3.org/Graphics/SVG/1.1/DTD/svg11.dtd" >
<svg xmlns="http://www.w3.org/2000/svg">
<metadata>
This is a custom SVG webfont generated by Font Squirrel.
Copyright   : Copyright
</metadata>
<defs>
<font id="NewRegular" horiz-adv-x="1170" >
<font-face units-per-em="2048" ascent="1638" descent="-410" />
<missing-glyph horiz-adv-x="500" />
<glyph unicode=" " />
<glyph unicode="!" d="M293 98v195q0 39 29 68t68 29h195q39 0 68.5 -29t29.5 -68v-195q0 -39 -29.5 -68.5t-68.5 -29.5h-195q-39 0 -68 29.5t-29 68.5zM293 683v585q0 39 29 68t68 29h195q39 0 68.5 -29t29.5 -68v-585q0 -39 -29.5 -68.5t-68.5 -29.5h-195q-39 0 -68 29.5t-29 68.5z" />
<glyph unicode="&#x22;" d="M293 1073v195q0 39 29 68t68 29t68.5 -29t29.5 -68v-195q0 -39 -29.5 -68.5t-68.5 -29.5t-68 29.5t-29 68.5zM683 1073v195q0 39 29 68t68 29t68.5 -29t29.5 -68v-195q0 -39 -29.5 -68.5t-68.5 -29.5t-68 29.5t-29 68.5z" />
<glyph unicode="#" d="M98 488q0 39 29 68t68 29h98v195h-98q-39 0 -68 29.5t-29 68.5t29 68t68 29h98v293q0 39 29 68t68 29t68.5 -29t29.5 -68v-293h195v293q0 39 29 68t68 29t68.5 -29t29.5 -68v-293h97q39 0 68.5 -29t29.5 -68t-29.5 -68.5t-68.5 -29.5h-97v-195h97q39 0 68.5 -29t29.5 -68 t-29.5 -68.5t-68.5 -29.5h-97v-292q0 -39 -29.5 -68.5t-68.5 -29.5t-68 29.5t-29 68.5v292h-195v-292q0 -39 -29.5 -68.5t-68.5 -29.5t-68 29.5t-29 68.5v292h-98q-39 0 -68 29.5t-29 68.5zM488 585h195v195h-195v-195z" />
<glyph unicode="$" d="M98 293q0 39 29 68t68 29h293v195h-98q-117 0 -204.5 88t-87.5 205t87.5 204.5t204.5 87.5h98v98q0 39 29 68t68 29t68.5 -29t29.5 -68v-98h292q39 0 68.5 -29t29.5 -68t-29.5 -68.5t-68.5 -29.5h-292v-195h97q117 0 205 -87.5t88 -204.5t-88 -205t-205 -88h-97v-97 q0 -39 -29.5 -68.5t-68.5 -29.5t-68 29.5t-29 68.5v97h-293q-39 0 -68 29.5t-29 68.5zM293 878q0 -39 29 -68.5t68 -29.5h98v195h-98q-39 0 -68 -29t-29 -68zM683 390h97q39 0 68.5 29.5t29.5 68.5t-29.5 68t-68.5 29h-97v-195z" />
<glyph unicode="%" d="M98 98v195q0 39 29 68l751 755v152q0 39 29 68t68 29t68.5 -29t29.5 -68v-195q0 -39 -29 -69l-751 -747v-159q0 -39 -29.5 -68.5t-68.5 -29.5t-68 29.5t-29 68.5zM98 1073v195q0 39 29 68t68 29h195q39 0 68.5 -29t29.5 -68v-195q0 -39 -29.5 -68.5t-68.5 -29.5h-195 q-39 0 -68 29.5t-29 68.5zM683 98v195q0 39 29 68t68 29h195q39 0 68.5 -29t29.5 -68v-195q0 -39 -29.5 -68.5t-68.5 -29.5h-195q-39 0 -68 29.5t-29 68.5z" />
<glyph unicode="&#x26;" d="M98 293v195q0 39 29 68l127 127l-127 126q-29 29 -29 69v195q0 117 87.5 204.5t204.5 87.5t205 -87.5t88 -204.5v-195q0 -39 -30 -69l-130 -126l130 -127l127 -127l127 127q29 29 68 29t68.5 -29t29.5 -68t-29 -69l-127 -123l127 -130q29 -29 29 -68t-29.5 -68.5 t-68.5 -29.5t-68 29l-131 127l-123 -127q-29 -29 -68 -29h-195q-117 0 -204.5 88t-87.5 205zM293 293q0 -39 29 -68.5t68 -29.5h156l98 98l-254 253l-97 -101v-152zM293 921l97 -98l98 98v152q0 39 -29.5 68t-68.5 29t-68 -29t-29 -68v-152z" />
<glyph unicode="'" d="M488 1073v195q0 39 29 68t68 29t68.5 -29t29.5 -68v-195q0 -39 -29.5 -68.5t-68.5 -29.5t-68 29.5t-29 68.5z" />
<glyph unicode="(" d="M488 293v780q0 117 87.5 204.5t204.5 87.5q39 0 68.5 -29t29.5 -68t-29.5 -68.5t-68.5 -29.5t-68 -29t-29 -68v-780q0 -39 29 -68.5t68 -29.5t68.5 -29t29.5 -68t-29.5 -68.5t-68.5 -29.5q-117 0 -204.5 88t-87.5 205z" />
<glyph unicode=")" d="M293 98q0 39 29 68t68 29t68.5 29.5t29.5 68.5v780q0 39 -29.5 68t-68.5 29t-68 29.5t-29 68.5t29 68t68 29q117 0 205 -87.5t88 -204.5v-780q0 -117 -88 -205t-205 -88q-39 0 -68 29.5t-29 68.5z" />
<glyph unicode="*" d="M98 878q0 39 29 68t68 29h246l-119 225q-29 29 -29 68t29 68t68 29t68 -29l127 -255l127 255q29 29 68 29t68.5 -29t29.5 -68t-30 -68l-119 -225h246q39 0 68.5 -29t29.5 -68t-29.5 -68.5t-68.5 -29.5h-246l119 -224q29 -29 29.5 -68t-29 -68.5t-68.5 -29.5t-68 29 l-127 256l-127 -256q-29 -29 -68 -29t-68 29.5t-29 68.5t29 68l119 224h-246q-39 0 -68 29.5t-29 68.5z" />
<glyph unicode="+" d="M98 683q0 39 29 68t68 29h293v293q0 39 29 68t68 29t68.5 -29t29.5 -68v-293h292q39 0 68.5 -29t29.5 -68t-29.5 -68.5t-68.5 -29.5h-292v-292q0 -39 -29.5 -68.5t-68.5 -29.5t-68 29.5t-29 68.5v292h-293q-39 0 -68 29.5t-29 68.5z" />
<glyph unicode="," d="M293 -98v391q0 39 29 68t68 29h195q39 0 68.5 -29t29.5 -68v-195q0 -39 -30 -69l-195 -195q-29 -29 -68 -29t-68 29t-29 68z" />
<glyph unicode="-" d="M98 683q0 39 29 68t68 29h780q39 0 68.5 -29t29.5 -68t-29.5 -68.5t-68.5 -29.5h-780q-39 0 -68 29.5t-29 68.5z" />
<glyph unicode="." d="M293 98v195q0 39 29 68t68 29h195q39 0 68.5 -29t29.5 -68v-195q0 -39 -29.5 -68.5t-68.5 -29.5h-195q-39 0 -68 29.5t-29 68.5z" />
<glyph unicode="/" d="M98 98v195q0 39 29 68l751 755v152q0 39 29 68t68 29t68.5 -29t29.5 -68v-195q0 -39 -29 -69l-751 -747v-159q0 -39 -29.5 -68.5t-68.5 -29.5t-68 29.5t-29 68.5z" />
<glyph unicode="0" d="M98 293v780q0 117 87.5 204.5t204.5 87.5h390q117 0 205 -87.5t88 -204.5v-780q0 -117 -88 -205t-205 -88h-390q-117 0 -204.5 88t-87.5 205zM293 293q0 -39 29 -68.5t68 -29.5h390q39 0 68.5 29.5t29.5 68.5v526zM293 546l585 527q0 39 -29.5 68t-68.5 29h-390 q-39 0 -68 -29t-29 -68v-527z" />
<glyph unicode="1" d="M293 98q0 39 29 68t68 29h98v843l-30 -34q-29 -29 -68 -29t-68 29.5t-29 68.5t29 68l195 195q29 29 68 29t68.5 -29t29.5 -68v-1073h97q39 0 68.5 -29t29.5 -68t-29.5 -68.5t-68.5 -29.5h-390q-39 0 -68 29.5t-29 68.5z" />
<glyph unicode="2" d="M98 98q0 39 29 68l751 755v152q0 39 -29.5 68t-68.5 29h-390q-39 0 -68 -29t-29 -68t-29.5 -68.5t-68.5 -29.5t-68 29.5t-29 68.5q0 117 87.5 204.5t204.5 87.5h390q117 0 205 -87.5t88 -204.5v-195q0 -39 -29 -69l-619 -614h550q39 0 68.5 -29t29.5 -68t-29.5 -68.5 t-68.5 -29.5h-780q-39 0 -68 29.5t-29 68.5z" />
<glyph unicode="3" d="M98 293q0 39 29 68t68 29t68.5 -29t29.5 -68t29 -68.5t68 -29.5h390q39 0 68.5 29.5t29.5 68.5v195q0 39 -29.5 68t-68.5 29h-195q-39 0 -68 29.5t-29 68.5t29 68t68 29h195q39 0 68.5 29.5t29.5 68.5v195q0 39 -29.5 68t-68.5 29h-390q-39 0 -68 -29t-29 -68 t-29.5 -68.5t-68.5 -29.5t-68 29.5t-29 68.5q0 117 87.5 204.5t204.5 87.5h390q117 0 205 -87.5t88 -204.5v-195q0 -117 -88 -205q88 -68 88 -185v-195q0 -117 -88 -205t-205 -88h-390q-117 0 -204.5 88t-87.5 205z" />
<glyph unicode="4" d="M98 488v585q0 39 29 68t68 29t68.5 -29t29.5 -68v-488h390v683q0 39 29 68t68 29t68.5 -29t29.5 -68v-683h97q39 0 68.5 -29t29.5 -68t-29.5 -68.5t-68.5 -29.5h-97v-292q0 -39 -29.5 -68.5t-68.5 -29.5t-68 29.5t-29 68.5v292h-488q-39 0 -68 29.5t-29 68.5z" />
<glyph unicode="5" d="M98 98q0 39 29 68t68 29h585q39 0 68.5 29.5t29.5 68.5v195q0 39 -29.5 68t-68.5 29h-585q-39 0 -68 29.5t-29 68.5v585q0 39 29 68t68 29h780q39 0 68.5 -29t29.5 -68t-29.5 -68.5t-68.5 -29.5h-682v-390h487q117 0 205 -87.5t88 -204.5v-195q0 -117 -88 -205t-205 -88 h-585q-39 0 -68 29.5t-29 68.5z" />
<glyph unicode="6" d="M98 293v780q0 117 87.5 204.5t204.5 87.5h390q39 0 68.5 -29t29.5 -68t-29.5 -68.5t-68.5 -29.5h-390q-39 0 -68 -29t-29 -68v-293h487q117 0 205 -78t88 -214v-195q0 -117 -88 -205t-205 -88h-390q-117 0 -204.5 88t-87.5 205zM293 293q0 -39 29 -68.5t68 -29.5h390 q39 0 68.5 29.5t29.5 68.5v195q0 39 -29.5 68t-68.5 29h-487v-292z" />
<glyph unicode="7" d="M98 98q0 39 29 68l751 755v249h-683q-39 0 -68 29.5t-29 68.5t29 68t68 29h780q39 0 68.5 -29t29.5 -68v-390q0 -39 -29 -69l-781 -780q-29 -29 -68 -29t-68 29.5t-29 68.5z" />
<glyph unicode="8" d="M98 293v195q0 117 87 204q-88 68 -87 186v195q0 117 87.5 204.5t204.5 87.5h390q117 0 205 -87.5t88 -204.5v-195q0 -117 -88 -205q88 -68 88 -185v-195q0 -117 -88 -205t-205 -88h-390q-117 0 -204.5 88t-87.5 205zM293 293q0 -39 29 -68.5t68 -29.5h390q39 0 68.5 29.5 t29.5 68.5v195q0 39 -29.5 68t-68.5 29h-390q-39 0 -68 -29t-29 -68v-195zM293 878q0 -39 29 -68.5t68 -29.5h390q39 0 68.5 29.5t29.5 68.5v195q0 39 -29.5 68t-68.5 29h-390q-39 0 -68 -29t-29 -68v-195z" />
<glyph unicode="9" d="M98 98q0 39 29 68t68 29h585q39 0 68.5 29.5t29.5 68.5v292h-488q-117 0 -204.5 78t-87.5 215v195q0 117 87.5 204.5t204.5 87.5h390q117 0 205 -87.5t88 -204.5v-780q0 -117 -88 -205t-205 -88h-585q-39 0 -68 29.5t-29 68.5zM293 878q0 -39 29 -68.5t68 -29.5h488v293 q0 39 -29.5 68t-68.5 29h-390q-39 0 -68 -29t-29 -68v-195z" />
<glyph unicode=":" d="M293 98v195q0 39 29 68t68 29h195q39 0 68.5 -29t29.5 -68v-195q0 -39 -29.5 -68.5t-68.5 -29.5h-195q-39 0 -68 29.5t-29 68.5zM293 878v195q0 39 29 68t68 29h195q39 0 68.5 -29t29.5 -68v-195q0 -39 -29.5 -68.5t-68.5 -29.5h-195q-39 0 -68 29.5t-29 68.5z" />
<glyph unicode=";" d="M293 -98v391q0 39 29 68t68 29h195q39 0 68.5 -29t29.5 -68v-195q0 -39 -30 -69l-195 -195q-29 -29 -68 -29t-68 29t-29 68zM293 878v195q0 39 29 68t68 29h195q39 0 68.5 -29t29.5 -68v-195q0 -39 -29.5 -68.5t-68.5 -29.5h-195q-39 0 -68 29.5t-29 68.5z" />
<glyph unicode="&#x3c;" d="M98 683q0 39 29 68l585 585q29 29 68 29t68.5 -29t29.5 -68t-30 -68l-520 -517l520 -517q29 -29 29.5 -68t-29 -68.5t-68.5 -29.5t-68 29l-585 585q-29 30 -29 69z" />
<glyph unicode="=" d="M98 488q0 39 29 68t68 29h780q39 0 68.5 -29t29.5 -68t-29.5 -68.5t-68.5 -29.5h-780q-39 0 -68 29.5t-29 68.5zM98 878q0 39 29 68t68 29h780q39 0 68.5 -29t29.5 -68t-29.5 -68.5t-68.5 -29.5h-780q-39 0 -68 29.5t-29 68.5z" />
<glyph unicode="&#x3e;" d="M293 98q0 39 29 68l521 517l-521 517q-29 29 -29 68t29 68t68 29t68 -29l586 -585q29 -29 29 -68t-29 -69l-586 -585q-29 -29 -68 -29t-68 29.5t-29 68.5z" />
<glyph unicode="?" d="M98 1073q0 117 87.5 204.5t204.5 87.5h390q117 0 205 -87.5t88 -204.5v-195q0 -39 -29 -69l-391 -390q-29 -29 -68 -29t-68 29.5t-29 68.5t29 68l361 365v152q0 39 -29.5 68t-68.5 29h-390q-39 0 -68 -29t-29 -68t-29.5 -68.5t-68.5 -29.5t-68 29.5t-29 68.5zM488 98 q0 39 29 68t68 29t68.5 -29t29.5 -68t-29.5 -68.5t-68.5 -29.5t-68 29.5t-29 68.5z" />
<glyph unicode="@" d="M98 293v780q0 117 87.5 204.5t204.5 87.5h390q117 0 205 -87.5t88 -204.5v-390q0 -117 -88 -205t-205 -88t-204.5 88t-87.5 205t87.5 204.5t204.5 87.5h98v98q0 39 -29.5 68t-68.5 29h-390q-39 0 -68 -29t-29 -68v-780q0 -39 29 -68.5t68 -29.5h585q39 0 68.5 -29 t29.5 -68t-29.5 -68.5t-68.5 -29.5h-585q-117 0 -204.5 88t-87.5 205zM683 683q0 -39 29 -68.5t68 -29.5t68.5 29.5t29.5 68.5t-29.5 68t-68.5 29t-68 -29t-29 -68z" />
<glyph unicode="A" d="M98 98v975q0 117 87.5 204.5t204.5 87.5h390q117 0 205 -87.5t88 -204.5v-975q0 -39 -29.5 -68.5t-68.5 -29.5t-68 29.5t-29 68.5v487h-585v-487q0 -39 -29.5 -68.5t-68.5 -29.5t-68 29.5t-29 68.5zM293 780h585v293q0 39 -29.5 68t-68.5 29h-390q-39 0 -68 -29t-29 -68 v-293z" />
<glyph unicode="B" d="M98 98v1170q0 39 29 68t68 29h585q117 0 205 -87.5t88 -204.5v-195q0 -117 -88 -205q88 -68 88 -185v-195q0 -117 -88 -205t-205 -88h-585q-39 0 -68 29.5t-29 68.5zM293 195h487q39 0 68.5 29.5t29.5 68.5v195q0 39 -29.5 68t-68.5 29h-487v-390zM293 780h487 q39 0 68.5 29.5t29.5 68.5v195q0 39 -29.5 68t-68.5 29h-487v-390z" />
<glyph unicode="C" d="M98 293v780q0 117 87.5 204.5t204.5 87.5h390q117 0 205 -87.5t88 -204.5q0 -39 -29.5 -68.5t-68.5 -29.5t-68 29.5t-29 68.5t-29.5 68t-68.5 29h-390q-39 0 -68 -29t-29 -68v-780q0 -39 29 -68.5t68 -29.5h390q39 0 68.5 29.5t29.5 68.5t29 68t68 29t68.5 -29t29.5 -68 q0 -117 -88 -205t-205 -88h-390q-117 0 -204.5 88t-87.5 205z" />
<glyph unicode="D" d="M98 98v1170q0 39 29 68t68 29h585q117 0 205 -87.5t88 -204.5v-780q0 -117 -88 -205t-205 -88h-585q-39 0 -68 29.5t-29 68.5zM293 195h487q39 0 68.5 29.5t29.5 68.5v780q0 39 -29.5 68t-68.5 29h-487v-975z" />
<glyph unicode="E" d="M98 98v1170q0 39 29 68t68 29h780q39 0 68.5 -29t29.5 -68t-29.5 -68.5t-68.5 -29.5h-682v-390h487q39 0 68.5 -29t29.5 -68t-29.5 -68.5t-68.5 -29.5h-487v-390h682q39 0 68.5 -29t29.5 -68t-29.5 -68.5t-68.5 -29.5h-780q-39 0 -68 29.5t-29 68.5z" />
<glyph unicode="F" d="M98 98v1170q0 39 29 68t68 29h780q39 0 68.5 -29t29.5 -68t-29.5 -68.5t-68.5 -29.5h-682v-390h487q39 0 68.5 -29t29.5 -68t-29.5 -68.5t-68.5 -29.5h-487v-390q0 -137 -29.5 -166t-68.5 -29t-68 29.5t-29 68.5z" />
<glyph unicode="G" d="M98 293v780q0 117 87.5 204.5t204.5 87.5h390q117 0 205 -87.5t88 -204.5q0 -39 -29.5 -68.5t-68.5 -29.5t-68 29.5t-29 68.5t-29.5 68t-68.5 29h-390q-39 0 -68 -29t-29 -68v-780q0 -39 29 -68.5t68 -29.5h390q39 0 68.5 29.5t29.5 68.5v292h-98q-39 0 -68 29.5 t-29 68.5t29 68t68 29h195q39 0 68.5 -29t29.5 -68v-390q0 -117 -88 -205t-205 -88h-390q-117 0 -204.5 88t-87.5 205z" />
<glyph unicode="H" d="M98 98v1170q0 39 29 68t68 29t68.5 -29t29.5 -68v-488h585v488q0 39 29 68t68 29t68.5 -29t29.5 -68v-1170q0 -39 -29.5 -68.5t-68.5 -29.5t-68 29.5t-29 68.5v487h-585v-487q0 -39 -29.5 -68.5t-68.5 -29.5t-68 29.5t-29 68.5z" />
<glyph unicode="I" d="M293 98q0 39 29 68t68 29h98v975h-98q-39 0 -68 29.5t-29 68.5t29 68t68 29h390q39 0 68.5 -29t29.5 -68t-29.5 -68.5t-68.5 -29.5h-97v-975h97q39 0 68.5 -29t29.5 -68t-29.5 -68.5t-68.5 -29.5h-390q-39 0 -68 29.5t-29 68.5z" />
<glyph unicode="J" d="M98 293q0 39 29 68t68 29t68.5 -29t29.5 -68t29 -68.5t68 -29.5h390q39 0 68.5 29.5t29.5 68.5v975q0 39 29 68t68 29t68.5 -29t29.5 -68v-975q0 -117 -88 -205t-205 -88h-390q-117 0 -204.5 88t-87.5 205z" />
<glyph unicode="K" d="M98 98v1170q0 39 29 68t68 29t68.5 -29t29.5 -68v-542l614 610q29 29 68 29t68.5 -29t29.5 -68t-29 -68l-521 -517l521 -517q29 -29 29 -68t-29.5 -68.5t-68.5 -29.5t-68 29l-517 521l-97 -97v-355q0 -39 -29.5 -68.5t-68.5 -29.5t-68 29.5t-29 68.5z" />
<glyph unicode="L" d="M98 98v1170q0 39 29 68t68 29t68.5 -29t29.5 -68v-1073h682q39 0 68.5 -29t29.5 -68t-29.5 -68.5t-68.5 -29.5h-780q-39 0 -68 29.5t-29 68.5z" />
<glyph unicode="M" d="M98 98v1170q0 39 29 68t68 29t68 -29l322 -322l322 322q29 29 68 29t68.5 -29t29.5 -68v-1170q0 -39 -29.5 -68.5t-68.5 -29.5t-68 29.5t-29 68.5v940l-225 -229q-29 -29 -68 -29t-68 29l-224 225v-936q0 -39 -29.5 -68.5t-68.5 -29.5t-68 29.5t-29 68.5z" />
<glyph unicode="N" d="M98 98v1170q0 39 29 68t68 29t68 -29l615 -614v546q0 39 29 68t68 29t68.5 -29t29.5 -68v-1170q0 -39 -29.5 -68.5t-68.5 -29.5t-68 29.5t-29 68.5v351l-585 585v-936q0 -39 -29.5 -68.5t-68.5 -29.5t-68 29.5t-29 68.5z" />
<glyph unicode="O" d="M98 293v780q0 117 87.5 204.5t204.5 87.5h390q117 0 205 -87.5t88 -204.5v-780q0 -117 -88 -205t-205 -88h-390q-117 0 -204.5 88t-87.5 205zM293 293q0 -39 29 -68.5t68 -29.5h390q39 0 68.5 29.5t29.5 68.5v780q0 39 -29.5 68t-68.5 29h-390q-39 0 -68 -29t-29 -68 v-780z" />
<glyph unicode="P" d="M98 98v1170q0 39 29 68t68 29h585q117 0 205 -87.5t88 -204.5v-195q0 -117 -88 -205t-205 -88h-487v-487q0 -39 -29.5 -68.5t-68.5 -29.5t-68 29.5t-29 68.5zM293 780h487q39 0 68.5 29.5t29.5 68.5v195q0 39 -29.5 68t-68.5 29h-487v-390z" />
<glyph unicode="Q" d="M98 293v780q0 117 87.5 204.5t204.5 87.5h390q117 0 205 -87.5t88 -204.5v-585q0 -39 -29 -69l-131 -126l131 -127q29 -29 29 -68t-29.5 -68.5t-68.5 -29.5t-68 29l-131 127l-123 -127q-29 -29 -68 -29h-195q-117 0 -204.5 88t-87.5 205zM293 293q0 -39 29 -68.5 t68 -29.5h156l98 98l-127 126q-29 29 -29 68.5t29 68.5t68 29t68 -29l100 -100l125 125v492q0 39 -29.5 68t-68.5 29h-390q-39 0 -68 -29t-29 -68v-780z" />
<glyph unicode="R" d="M98 98v1170q0 39 29 68t68 29h585q117 0 205 -87.5t88 -204.5v-195q0 -117 -88 -205q88 -68 88 -185v-390q0 -39 -29.5 -68.5t-68.5 -29.5t-68 29.5t-29 68.5v390q0 39 -29.5 68t-68.5 29h-487v-487q0 -39 -29.5 -68.5t-68.5 -29.5t-68 29.5t-29 68.5zM293 780h487 q39 0 68.5 29.5t29.5 68.5v195q0 39 -29.5 68t-68.5 29h-487v-390z" />
<glyph unicode="S" d="M98 293q0 39 29 68t68 29t68.5 -29t29.5 -68t29 -68.5t68 -29.5h390q39 0 68.5 29.5t29.5 68.5v195q0 39 -29.5 68t-68.5 29h-390q-137 0 -214.5 78t-77.5 215v195q0 117 78 204.5t214 87.5h390q117 0 205 -87.5t88 -204.5q0 -39 -29.5 -68.5t-68.5 -29.5t-68 29.5 t-29 68.5t-29.5 68t-68.5 29h-390q-39 0 -68 -29t-29 -68v-195q0 -39 29 -68.5t68 -29.5h390q117 0 205 -87.5t88 -204.5v-195q0 -137 -88 -215t-205 -78h-390q-117 0 -204.5 88t-87.5 205z" />
<glyph unicode="T" d="M98 1268q0 39 29 68t68 29h780q39 0 68.5 -29t29.5 -68t-29.5 -68.5t-68.5 -29.5h-292v-1072q0 -39 -29.5 -68.5t-68.5 -29.5t-68 29.5t-29 68.5v1072h-293q-39 0 -68 29.5t-29 68.5z" />
<glyph unicode="U" d="M98 293v975q0 39 29 68t68 29t68.5 -29t29.5 -68v-975q0 -39 29 -68.5t68 -29.5h390q39 0 68.5 29.5t29.5 68.5v975q0 39 29 68t68 29t68.5 -29t29.5 -68v-975q0 -117 -88 -205t-205 -88h-390q-117 0 -204.5 88t-87.5 205z" />
<glyph unicode="V" d="M98 488v780q0 39 29 68t68 29t68.5 -29t29.5 -68v-687l292 -292l293 292v687q0 39 29 68t68 29t68.5 -29t29.5 -68v-780q0 -39 -29 -69l-391 -390q-29 -29 -68 -29t-68 29l-390 390q-29 30 -29 69z" />
<glyph unicode="W" d="M98 293v975q0 39 29 68t68 29t68.5 -29t29.5 -68v-975q0 -39 29 -68.5t68 -29.5t68.5 29.5t29.5 68.5v390q0 39 29 68t68 29t68.5 -29t29.5 -68v-390q0 -39 29 -68.5t68 -29.5t68.5 29.5t29.5 68.5v975q0 39 29 68t68 29t68.5 -29t29.5 -68v-975q0 -117 -88 -205 t-205 -88t-205 88q-68 -88 -185 -88t-204.5 88t-87.5 205z" />
<glyph unicode="X" d="M98 98v195q0 39 29 68l322 322l-322 321q-29 29 -29 69v195q0 39 29 68t68 29t68.5 -29t29.5 -68v-156l292 -293l293 293v156q0 39 29 68t68 29t68.5 -29t29.5 -68v-195q0 -39 -29 -69l-326 -321l326 -322q29 -29 29 -68v-195q0 -39 -29.5 -68.5t-68.5 -29.5t-68 29.5 t-29 68.5v156l-293 292l-292 -292v-156q0 -39 -29.5 -68.5t-68.5 -29.5t-68 29.5t-29 68.5z" />
<glyph unicode="Y" d="M98 1073v195q0 39 29 68t68 29t68.5 -29t29.5 -68v-156l292 -293l293 293v156q0 39 29 68t68 29t68.5 -29t29.5 -68v-195q0 -39 -29 -69l-361 -356v-550q0 -39 -29.5 -68.5t-68.5 -29.5t-68 29.5t-29 68.5v546l-361 360q-29 30 -29 69z" />
<glyph unicode="Z" d="M98 98v195q0 39 29 68l751 755v54h-683q-39 0 -68 29.5t-29 68.5t29 68t68 29h780q39 0 68.5 -29t29.5 -68v-195q0 -39 -29 -69l-751 -747v-62h682q39 0 68.5 -29t29.5 -68t-29.5 -68.5t-68.5 -29.5h-780q-39 0 -68 29.5t-29 68.5z" />
<glyph unicode="[" d="M488 98v1170q0 39 29 68t68 29h195q39 0 68.5 -29t29.5 -68t-29.5 -68.5t-68.5 -29.5h-97v-975h97q39 0 68.5 -29t29.5 -68t-29.5 -68.5t-68.5 -29.5h-195q-39 0 -68 29.5t-29 68.5z" />
<glyph unicode="\" d="M98 1073v195q0 39 29 68t68 29t68.5 -29t29.5 -68v-152l751 -755q29 -29 29 -68v-195q0 -39 -29.5 -68.5t-68.5 -29.5t-68 29.5t-29 68.5v159l-751 747q-29 30 -29 69z" />
<glyph unicode="]" d="M293 98q0 39 29 68t68 29h98v975h-98q-39 0 -68 29.5t-29 68.5t29 68t68 29h195q39 0 68.5 -29t29.5 -68v-1170q0 -39 -29.5 -68.5t-68.5 -29.5h-195q-39 0 -68 29.5t-29 68.5z" />
<glyph unicode="^" d="M98 878q0 39 29 68l390 390q29 29 68 29t68 -29l391 -390q29 -29 29 -68t-29.5 -68.5t-68.5 -29.5t-68 29l-322 326l-322 -326q-29 -29 -68 -29t-68 29.5t-29 68.5z" />
<glyph unicode="_" d="M98 -98q0 39 29 68.5t68 29.5h780q39 0 68.5 -29.5t29.5 -68.5t-29.5 -68t-68.5 -29h-780q-39 0 -68 29t-29 68z" />
<glyph unicode="`" d="M488 1268q0 39 29 68t68 29t68 -29l195 -195q29 -29 29.5 -68t-29 -68.5t-68.5 -29.5t-68 29l-195 196q-29 29 -29 68z" />
<glyph unicode="a" d="M98 293q0 117 87.5 204.5t204.5 87.5h488v98q0 39 -29.5 68t-68.5 29h-390q-39 0 -68 29.5t-29 68.5t29 68t68 29h390q117 0 205 -87.5t88 -204.5v-585q0 -39 -29.5 -68.5t-68.5 -29.5h-585q-117 0 -204.5 88t-87.5 205zM293 293q0 -39 29 -68.5t68 -29.5h488v195h-488 q-39 0 -68 -29t-29 -68z" />
<glyph unicode="b" d="M98 98v1170q0 39 29 68t68 29t68.5 -29t29.5 -68v-293h487q117 0 205 -87.5t88 -204.5v-390q0 -117 -88 -205t-205 -88h-585q-39 0 -68 29.5t-29 68.5zM293 195h487q39 0 68.5 29.5t29.5 68.5v390q0 39 -29.5 68t-68.5 29h-487v-585z" />
<glyph unicode="c" d="M98 293v390q0 117 87.5 204.5t204.5 87.5h390q117 0 205 -87.5t88 -204.5q0 -39 -29.5 -68.5t-68.5 -29.5t-68 29.5t-29 68.5t-29.5 68t-68.5 29h-390q-39 0 -68 -29t-29 -68v-390q0 -39 29 -68.5t68 -29.5h390q39 0 68.5 29.5t29.5 68.5t29 68t68 29t68.5 -29t29.5 -68 q0 -117 -88 -205t-205 -88h-390q-117 0 -204.5 88t-87.5 205z" />
<glyph unicode="d" d="M98 293v390q0 117 87.5 204.5t204.5 87.5h488v293q0 39 29 68t68 29t68.5 -29t29.5 -68v-1170q0 -39 -29.5 -68.5t-68.5 -29.5h-585q-117 0 -204.5 88t-87.5 205zM293 293q0 -39 29 -68.5t68 -29.5h488v585h-488q-39 0 -68 -29t-29 -68v-390z" />
<glyph unicode="e" d="M98 293v390q0 117 87.5 204.5t204.5 87.5h390q117 0 205 -87.5t88 -204.5v-195q0 -39 -29.5 -68.5t-68.5 -29.5h-682v-97q0 -39 29 -68.5t68 -29.5h390q39 0 68.5 -29t29.5 -68t-29.5 -68.5t-68.5 -29.5h-390q-117 0 -204.5 88t-87.5 205zM293 585h585v98q0 39 -29.5 68 t-68.5 29h-390q-39 0 -68 -29t-29 -68v-98z" />
<glyph unicode="f" d="M293 878q0 39 29 68t68 29h98v98q0 117 87.5 204.5t204.5 87.5h195q39 0 68.5 -29t29.5 -68t-29.5 -68.5t-68.5 -29.5h-195q-39 0 -68 -29t-29 -68v-98h97q39 0 68.5 -29t29.5 -68t-29.5 -68.5t-68.5 -29.5h-97v-682q0 -39 -29.5 -68.5t-68.5 -29.5t-68 29.5t-29 68.5 v682h-98q-39 0 -68 29.5t-29 68.5z" />
<glyph unicode="g" d="M98 488v195q0 117 87.5 204.5t204.5 87.5h585q39 0 68.5 -29t29.5 -68v-780q0 -117 -88 -205t-205 -88h-390q-39 0 -68 29t-29 68t29 68.5t68 29.5h390q39 0 68.5 29.5t29.5 68.5v97h-488q-117 0 -204.5 88t-87.5 205zM293 488q0 -39 29 -68.5t68 -29.5h488v390h-488 q-39 0 -68 -29t-29 -68v-195z" />
<glyph unicode="h" d="M98 98v1170q0 39 29 68t68 29t68.5 -29t29.5 -68v-293h487q117 0 205 -87.5t88 -204.5v-585q0 -39 -29.5 -68.5t-68.5 -29.5t-68 29.5t-29 68.5v585q0 39 -29.5 68t-68.5 29h-487v-682q0 -39 -29.5 -68.5t-68.5 -29.5t-68 29.5t-29 68.5z" />
<glyph unicode="i" d="M293 98q0 39 29 68t68 29h98v585h-98q-39 0 -68 29.5t-29 68.5t29 68t68 29h195q39 0 68.5 -29t29.5 -68v-683h97q39 0 68.5 -29t29.5 -68t-29.5 -68.5t-68.5 -29.5h-390q-39 0 -68 29.5t-29 68.5zM488 1268q0 39 29 68t68 29t68.5 -29t29.5 -68t-29.5 -68.5t-68.5 -29.5 t-68 29.5t-29 68.5z" />
<glyph unicode="j" d="M98 98q0 39 29 68t68 29t68.5 -29t29.5 -68t29 -68.5t68 -29.5h195q39 0 68.5 29.5t29.5 68.5v682h-98q-39 0 -68 29.5t-29 68.5t29 68t68 29h195q39 0 68.5 -29t29.5 -68v-780q0 -117 -88 -205t-205 -88h-195q-117 0 -204.5 88t-87.5 205zM683 1268q0 39 29 68t68 29 t68.5 -29t29.5 -68t-29.5 -68.5t-68.5 -29.5t-68 29.5t-29 68.5z" />
<glyph unicode="k" d="M293 98v1170q0 39 29 68t68 29t68.5 -29t29.5 -68v-737l419 415q29 29 68 29t68.5 -29t29.5 -68t-29 -69l-322 -317l322 -326q29 -29 29 -68t-29.5 -68.5t-68.5 -29.5t-68 29l-322 322l-97 -97v-156q0 -39 -29.5 -68.5t-68.5 -29.5t-68 29.5t-29 68.5z" />
<glyph unicode="l" d="M293 98q0 39 29 68t68 29h98v975h-98q-39 0 -68 29.5t-29 68.5t29 68t68 29h195q39 0 68.5 -29t29.5 -68v-1073h97q39 0 68.5 -29t29.5 -68t-29.5 -68.5t-68.5 -29.5h-390q-39 0 -68 29.5t-29 68.5z" />
<glyph unicode="m" d="M98 98v780q0 39 29 68t68 29h195q117 0 205 -88q68 88 185 88t205 -87.5t88 -204.5v-585q0 -39 -29.5 -68.5t-68.5 -29.5t-68 29.5t-29 68.5v585q0 39 -29.5 68t-68.5 29t-68 -29t-29 -68v-585q0 -39 -29.5 -68.5t-68.5 -29.5t-68 29.5t-29 68.5v585q0 39 -29.5 68 t-68.5 29h-97v-682q0 -39 -29.5 -68.5t-68.5 -29.5t-68 29.5t-29 68.5z" />
<glyph unicode="n" d="M98 98v780q0 39 29 68t68 29h585q117 0 205 -87.5t88 -204.5v-585q0 -39 -29.5 -68.5t-68.5 -29.5t-68 29.5t-29 68.5v585q0 39 -29.5 68t-68.5 29h-487v-682q0 -39 -29.5 -68.5t-68.5 -29.5t-68 29.5t-29 68.5z" />
<glyph unicode="o" d="M98 293v390q0 117 87.5 204.5t204.5 87.5h390q117 0 205 -87.5t88 -204.5v-390q0 -117 -88 -205t-205 -88h-390q-117 0 -204.5 88t-87.5 205zM293 293q0 -39 29 -68.5t68 -29.5h390q39 0 68.5 29.5t29.5 68.5v390q0 39 -29.5 68t-68.5 29h-390q-39 0 -68 -29t-29 -68 v-390z" />
<glyph unicode="p" d="M98 -98v976q0 39 29 68t68 29h585q117 0 205 -87.5t88 -204.5v-195q0 -117 -88 -205t-205 -88h-487v-293q0 -39 -29.5 -68t-68.5 -29t-68 27t-29 70zM293 390h487q39 0 68.5 29.5t29.5 68.5v195q0 39 -29.5 68t-68.5 29h-487v-390z" />
<glyph unicode="q" d="M98 488v195q0 117 87.5 204.5t204.5 87.5h585q39 0 68.5 -29t29.5 -68v-976q0 -43 -29.5 -70t-68.5 -27t-68 29t-29 68v293h-488q-117 0 -204.5 88t-87.5 205zM293 488q0 -39 29 -68.5t68 -29.5h488v390h-488q-39 0 -68 -29t-29 -68v-195z" />
<glyph unicode="r" d="M293 98v780q0 39 29 68t68 29h390q117 0 205 -87.5t88 -204.5q0 -39 -29.5 -68.5t-68.5 -29.5t-68 29.5t-29 68.5t-29.5 68t-68.5 29h-292v-682q0 -39 -29.5 -68.5t-68.5 -29.5t-68 29.5t-29 68.5z" />
<glyph unicode="s" d="M98 98q0 39 29 68t68 29h585q39 0 68.5 29.5t29.5 68.5t-29.5 68t-72.5 29h-386q-117 0 -204.5 88t-87.5 205t87.5 204.5t204.5 87.5h585q39 0 68.5 -29t29.5 -68t-29.5 -68.5t-68.5 -29.5h-585q-39 0 -68 -29t-29 -68t29 -68.5t68 -29.5h390q117 0 205 -87.5t88 -204.5 t-88 -205t-205 -88h-585q-39 0 -68 29.5t-29 68.5z" />
<glyph unicode="t" d="M293 878q0 39 29 68t68 29h98v293q0 39 29 68t68 29t68.5 -29t29.5 -68v-293h292q39 0 68.5 -29t29.5 -68t-29.5 -68.5t-68.5 -29.5h-292v-487q0 -39 29 -68.5t68 -29.5h195q39 0 68.5 -29t29.5 -68t-29.5 -68.5t-68.5 -29.5h-195q-117 0 -204.5 88t-87.5 205v487h-98 q-39 0 -68 29.5t-29 68.5z" />
<glyph unicode="u" d="M98 293v585q0 39 29 68t68 29t68.5 -29t29.5 -68v-585q0 -39 29 -68.5t68 -29.5h488v683q0 39 29 68t68 29t68.5 -29t29.5 -68v-780q0 -39 -29.5 -68.5t-68.5 -29.5h-585q-117 0 -204.5 88t-87.5 205z" />
<glyph unicode="v" d="M98 488v390q0 39 29 68t68 29t68.5 -29t29.5 -68v-297l292 -292l293 292v297q0 39 29 68t68 29t68.5 -29t29.5 -68v-390q0 -39 -29 -69l-391 -390q-29 -29 -68 -29t-68 29l-390 390q-29 30 -29 69z" />
<glyph unicode="w" d="M98 293v585q0 39 29 68t68 29t68.5 -29t29.5 -68v-585q0 -39 29 -68.5t68 -29.5t68.5 29.5t29.5 68.5v390q0 39 29 68t68 29t68.5 -29t29.5 -68v-390q0 -39 29 -68.5t68 -29.5t68.5 29.5t29.5 68.5v585q0 39 29 68t68 29t68.5 -29t29.5 -68v-585q0 -117 -88 -205 t-205 -88t-205 88q-68 -88 -185 -88t-204.5 88t-87.5 205z" />
<glyph unicode="x" d="M98 98q0 39 29 68l318 322l-318 321q-29 29 -29 68.5t29 68.5t68 29t68 -29l322 -318l322 318q29 29 68 29t68.5 -29t29.5 -68t-29 -69l-326 -321l326 -322q29 -29 29 -68t-29.5 -68.5t-68.5 -29.5t-68 29l-322 326l-322 -326q-29 -29 -68 -29t-68 29.5t-29 68.5z" />
<glyph unicode="y" d="M98 488v390q0 39 29 68t68 29t68.5 -29t29.5 -68v-390q0 -39 29 -68.5t68 -29.5h488v488q0 39 29 68t68 29t68.5 -29t29.5 -68v-780q0 -117 -88 -205t-205 -88h-390q-39 0 -68 29t-29 68t29 68.5t68 29.5h390q39 0 68.5 29.5t29.5 68.5v97h-488q-117 0 -204.5 88 t-87.5 205z" />
<glyph unicode="z" d="M98 98q0 39 29 68l610 614h-542q-39 0 -68 29.5t-29 68.5t29 68t68 29h780q39 0 68.5 -29t29.5 -68t-29 -69l-619 -614h550q39 0 68.5 -29t29.5 -68t-29.5 -68.5t-68.5 -29.5h-780q-39 0 -68 29.5t-29 68.5z" />
<glyph unicode="{" d="M293 683q0 39 29 68t68 29q35 -4 66.5 27.5t31.5 70.5v195q0 117 87.5 204.5t204.5 87.5q39 0 68.5 -29t29.5 -68t-29.5 -68.5t-68.5 -29.5t-68 -29t-29 -68v-195q0 -117 -88 -205q88 -68 88 -185v-195q0 -39 29 -68.5t68 -29.5t68.5 -29t29.5 -68t-29.5 -68.5 t-68.5 -29.5q-117 0 -204.5 88t-87.5 205v195q0 39 -29.5 68t-68.5 29t-68 29.5t-29 68.5z" />
<glyph unicode="|" d="M488 98v1170q0 39 29 68t68 29t68.5 -29t29.5 -68v-1170q0 -39 -29.5 -68.5t-68.5 -29.5t-68 29.5t-29 68.5z" />
<glyph unicode="}" d="M293 98q0 39 29 68t68 29t68.5 29.5t29.5 68.5v195q0 117 87 185q-88 88 -87 205v195q0 39 -29.5 68t-68.5 29t-68 29.5t-29 68.5t29 68t68 29q117 0 205 -87.5t88 -204.5v-195q0 -39 31 -70.5t66 -27.5q39 0 68.5 -29t29.5 -68t-29.5 -68.5t-68.5 -29.5t-68 -29t-29 -68 v-195q0 -117 -88 -205t-205 -88q-39 0 -68 29.5t-29 68.5z" />
<glyph unicode="~" d="M98 1073q0 113 87.5 202.5t204.5 89.5t205 -87.5t88 -204.5q0 -39 29 -68.5t68 -29.5t68.5 29.5t29.5 68.5t29 68t68 29t68.5 -29t29.5 -68q0 -117 -88 -205t-205 -88t-204.5 88t-87.5 205q0 39 -29.5 68t-68.5 29t-68 -29t-29 -68t-29.5 -68.5t-68.5 -29.5t-68 29.5 t-29 68.5z" />
<glyph unicode="&#xa0;" />
<glyph unicode="&#xad;" d="M98 683q0 39 29 68t68 29h780q39 0 68.5 -29t29.5 -68t-29.5 -68.5t-68.5 -29.5h-780q-39 0 -68 29.5t-29 68.5z" />
<glyph unicode="&#x2000;" horiz-adv-x="682" />
<glyph unicode="&#x2001;" horiz-adv-x="1365" />
<glyph unicode="&#x2002;" horiz-adv-x="682" />
<glyph unicode="&#x2003;" horiz-adv-x="1365" />
<glyph unicode="&#x2004;" horiz-adv-x="454" />
<glyph unicode="&#x2005;" horiz-adv-x="341" />
<glyph unicode="&#x2006;" horiz-adv-x="227" />
<glyph unicode="&#x2007;" horiz-adv-x="227" />
<glyph unicode="&#x2008;" horiz-adv-x="170" />
<glyph unicode="&#x2009;" horiz-adv-x="273" />
<glyph unicode="&#x200a;" horiz-adv-x="75" />
<glyph unicode="&#x2010;" d="M98 683q0 39 29 68t68 29h780q39 0 68.5 -29t29.5 -68t-29.5 -68.5t-68.5 -29.5h-780q-39 0 -68 29.5t-29 68.5z" />
<glyph unicode="&#x2011;" d="M98 683q0 39 29 68t68 29h780q39 0 68.5 -29t29.5 -68t-29.5 -68.5t-68.5 -29.5h-780q-39 0 -68 29.5t-29 68.5z" />
<glyph unicode="&#x2012;" d="M98 683q0 39 29 68t68 29h780q39 0 68.5 -29t29.5 -68t-29.5 -68.5t-68.5 -29.5h-780q-39 0 -68 29.5t-29 68.5z" />
<glyph unicode="&#x2013;" horiz-adv-x="1024" d="M98 585v195h828v-195h-828z" />
<glyph unicode="&#x2014;" horiz-adv-x="2048" d="M98 585v195h1852v-195h-1852z" />
<glyph unicode="&#x2018;" d="M488 1268q0 39 29 68t68 29t68 -29l195 -195q29 -29 29.5 -68t-29 -68.5t-68.5 -29.5t-68 29l-195 196q-29 29 -29 68z" />
<glyph unicode="&#x2019;" d="M488 1073v195q0 39 29 68t68 29t68.5 -29t29.5 -68v-195q0 -39 -29.5 -68.5t-68.5 -29.5t-68 29.5t-29 68.5z" />
<glyph unicode="&#x201c;" d="M293 1073v195q0 39 29 68t68 29t68.5 -29t29.5 -68v-195q0 -39 -29.5 -68.5t-68.5 -29.5t-68 29.5t-29 68.5zM683 1073v195q0 39 29 68t68 29t68.5 -29t29.5 -68v-195q0 -39 -29.5 -68.5t-68.5 -29.5t-68 29.5t-29 68.5z" />
<glyph unicode="&#x201d;" d="M293 1073v195q0 39 29 68t68 29t68.5 -29t29.5 -68v-195q0 -39 -29.5 -68.5t-68.5 -29.5t-68 29.5t-29 68.5zM683 1073v195q0 39 29 68t68 29t68.5 -29t29.5 -68v-195q0 -39 -29.5 -68.5t-68.5 -29.5t-68 29.5t-29 68.5z" />
<glyph unicode="&#x2026;" horiz-adv-x="3510" d="M2634 98v195q0 39 29 68t68 29h195q39 0 68.5 -29t29.5 -68v-195q0 -39 -29.5 -68.5t-68.5 -29.5h-195q-39 0 -68 29.5t-29 68.5zM1463 98v195q0 39 29 68t68 29h195q39 0 68.5 -29t29.5 -68v-195q0 -39 -29.5 -68.5t-68.5 -29.5h-195q-39 0 -68 29.5t-29 68.5zM293 98 v195q0 39 29 68t68 29h195q39 0 68.5 -29t29.5 -68v-195q0 -39 -29.5 -68.5t-68.5 -29.5h-195q-39 0 -68 29.5t-29 68.5z" />
<glyph unicode="&#x202f;" horiz-adv-x="273" />
<glyph unicode="&#x205f;" horiz-adv-x="341" />
<glyph unicode="&#x2122;" horiz-adv-x="2340" d="M1268 98v1170q0 39 29 68t68 29t68 -29l322 -322l322 322q29 29 68 29t68.5 -29t29.5 -68v-1170q0 -39 -29.5 -68.5t-68.5 -29.5t-68 29.5t-29 68.5v940l-225 -229q-29 -29 -68 -29t-68 29l-224 225v-936q0 -39 -29.5 -68.5t-68.5 -29.5t-68 29.5t-29 68.5zM98 1268 q0 39 29 68t68 29h780q39 0 68.5 -29t29.5 -68t-29.5 -68.5t-68.5 -29.5h-292v-1072q0 -39 -29.5 -68.5t-68.5 -29.5t-68 29.5t-29 68.5v1072h-293q-39 0 -68 29.5t-29 68.5z" />
<glyph unicode="&#xe000;" horiz-adv-x="975" d="M0 975h975v-975h-975v975z" />
</font>
</defs>
</svg>
